# xmcd
#
# Track frame offsets: 
#        150
#        28810
#        53307
#        68822
#        91906
#        111407
#        129571
#        151999
#        167993
#
# Disc length: 2546 seconds
#
# Revision: 0
# Processed by: cddbd v1.5.2PL0 Copyright (c) Steve Scherf et al.
# Submitted via: ExactAudioCopy v0.99pb5
#
DISCID=7109f009
DTITLE=Hong Vy - Hoa Lua and Vy
DYEAR=2006
DGENRE=Country
TTITLE0=Laido - Laido
TTITLE1=Pacbo - Pacbo
TTITLE2=Votchong - Votchong
TTITLE3=Canhvong - Canhvong
TTITLE4=Truongson - Truongson
TTITLE5=Paco - Paco
TTITLE6=Noitronglen - Noitronglen
TTITLE7=Chauyen - Chauyen
TTITLE8=NgHN - NgHN
EXTD=
EXTT0=
EXTT1=
EXTT2=
EXTT3=
EXTT4=
EXTT5=
EXTT6=
EXTT7=
EXTT8=
PLAYORDER=
